<?xml version="1.0" encoding="utf-8"?>
<!-- Generator: Adobe Illustrator 24.0.3, SVG Export Plug-In . SVG Version: 6.00 Build 0)  -->
<svg version="1.1" id="Layer_1" xmlns="http://www.w3.org/2000/svg" xmlns:xlink="http://www.w3.org/1999/xlink" x="0px" y="0px"
	 viewBox="0 0 353 139" style="enable-background:new 0 0 353 139;" xml:space="preserve">
<style type="text/css">
	.st0{fill:#BC6730;}
</style>
<g>
	<path class="st0" d="M59.38,31.46C72.2,30,85.19,31.92,97.9,33.44c18.82,2.26,37.75,3.68,56.43,7.1
		c26.35,4.8,52.7,11.67,79.31,16.22c18.63,3.18,38.97,6.74,57.8,3.15c0.06,0.13,6.61-1.19,8.81-2.32c0.24-0.13,1.71-34.2,1.71-34.2
		l-0.93-0.31c-11.77-4.16-24.12-2.18-36.26-0.68c-16.67,2.08-33.58,2.55-50.3,0.96c-21.33-2.02-42.23-8.73-63.31-12.54
		C117.09,4.64,84.09,1.4,49.46,1.52C35.42,1.57,21.11,0.1,7.11,1.54c-0.45,0.23-9.07,3.41-4.4,21.81c0,0,8.16,18.03,20.02,16.86
		C35.3,38.97,46.84,32.9,59.38,31.46z"/>
	<path class="st0" d="M351.26,126.65c0,0-1.03-5.02-2.45-13.03c-0.18-1-0.37-2.04-0.56-3.13c-4.07-23.25-10.5-65.97-7.76-89.69
		c0,0,0,0,0,0l0.98-5.95c-0.2-0.4-36.86-1.99-36.86-1.99l0,0.68l-0.25,4.74c0.08-0.01,0.17-0.01,0.26-0.02l-0.26,0.02l-2.34,45.54
		l3.28,6.48l-28.56,39.35l-0.5,0.67l-5.87,8.09C270.36,118.43,307.26,142.75,351.26,126.65z"/>
	<path class="st0" d="M342.66,55.73l3.96-1.6c0,0,1.46-16.03-0.17-29.41l-3.84-1.57C342.61,23.15,340.28,29.62,342.66,55.73z"/>
</g>
</svg>
