<?xml version="1.0" encoding="utf-8"?>
<!-- Generator: Adobe Illustrator 24.0.3, SVG Export Plug-In . SVG Version: 6.00 Build 0)  -->
<svg version="1.1" id="Layer_1" xmlns="http://www.w3.org/2000/svg" xmlns:xlink="http://www.w3.org/1999/xlink" x="0px" y="0px"
	 viewBox="0 0 40 1073.2" style="enable-background:new 0 0 40 1073.2;" xml:space="preserve">
<style type="text/css">
	.st0{fill:#FFEAD7;}
</style>
<path class="st0" d="M0-6.8v1080h17.2H18h10.6c0.2-0.6,0.3-1.1,0.6-1.7c-0.2-3-1-5.9,1.9-8.3c0.2-2.3-0.6-3.7,0.9-3.8
	c0.8-0.1,1-1.9,0.3-4.2c0.1-2.4,0.3-5.4,0.5-7.9c0.1-2.4,0.3-4.2,0.3-4.2s0.4-2.8,2-5.7c3.6-3-1-5.5,2.5-5.7
	c4.3-0.3-0.9-0.8,1.7-2.3c-4-1.1-3.8-3.1-2.1-5.4c-0.4-2.2-3.6-4.5-2.4-7c-0.2-1.2-0.5-2.5-0.7-3.7c-0.2-1.2-0.4-2.4-0.7-3.5
	c-0.4-2.2-0.1-4.2-1-5.5c2.3-1.5-1.1-2.1-0.4-2.2c2-0.1-1.3-2.3-1.4-4.6c-0.9-2.3-2.9-4.5-1.4-4.6c0.5,0-1.8-0.5,0-1.6
	c-1.7-0.9-1.7-2.4,0.1-4.1c-1.6-1.5,3.5-3.7,0.7-5.4c-1.1-1.8,0.4-3.7-0.5-5.3c3.7-1.9-3.6-2.8-0.5-4.1c0.9-1.1,0-1.6,0.6-1.7
	c0.1,0-0.5-0.6,1.4-1.8c-0.1-0.5,1.8-1.3,1.6-1.9c0.8-0.7,1.5-1.5,1.7-2.3c0.4-0.3,0.7-0.5,0.9-0.8c0,0,0,0,0.1,0c0,0,0,0,0-0.1
	c0.1-0.1,0.1-0.1,0.2-0.2c-0.1,0-0.1,0-0.2,0c0-0.3-0.1-0.6-0.3-0.9c-1.8-2.5,1.9-4.8-0.1-4.6c-0.3,0,0.7-1.8-3.2-3.2
	c-1.6-1.6-3.2-3.2-3.2-3.2L29,929c0,0,2-2.3,4.1-4.5c1.1-2.2,5-4.6,4.1-4.5c1.4-0.1,0.8-1.8-0.3-4.1c-1.5-2.2,0.1-5.3-0.6-7.6
	c0.3-2.4-0.8-4-0.3-4.1c-0.9,0.1,1.6-1.5,1.7-2.9c1.3-1.5,2-2.9,1.7-2.9c-0.5,0,0.5-0.8-0.7-1.8c1.5-1.2-1.5-2.5-1.6-4
	c0-1.5-2-2.9-3-3.9c-1-1-1.4-1.8,0.7-1.9c-4,0.3-0.5-1.8-0.3-4.2c-4.9-2.1-1.5-5.3-0.6-7.8c-5.1-2.1,0.9-4.3-0.3-4.2
	c-0.3,0-2.8-1.2-3.2-3.1c-1.9-1.8,0.8-4-1-5.8c-1.9-1.8-3.2-3.1-3.2-3.1s-0.3-3.4-0.5-6.8c-0.9-3.4-1.1-6.8-0.5-6.8
	c-1.9,0.1,0.1-1.5,0.8-3.8c0.6-2.3,0.6-5.3,1.9-8.4c-0.2-3-1-5.9,1.9-8.3c0.2-2.3-0.6-3.7,0.8-3.8c0.8-0.1,1-1.9,0.3-4.2
	c0.2-2.4,0.3-5.4,0.5-7.9c0.2-2.4,0.3-4.2,0.3-4.2s0.3-2.8,2-5.7c3.6-3-1-5.5,2.5-5.7c4.3-0.3-0.9-0.8,1.7-2.3
	c-4-1.1-3.8-3.1-2.1-5.4c-0.3-2.2-3.6-4.5-2.4-7c-0.2-1.2-0.5-2.5-0.7-3.7c-0.2-1.2-0.4-2.4-0.7-3.5c-0.4-2.2-0.1-4.2-1-5.5
	c2.3-1.5-1.1-2.1-0.4-2.2c2-0.1-1.3-2.3-1.4-4.6c-0.9-2.3-2.8-4.5-1.4-4.6c0.5,0-1.8-0.5,0-1.7c-1.7-0.9-1.7-2.3,0.1-4.1
	c-1.6-1.5,3.4-3.7,0.7-5.4c-1.1-1.8,0.4-3.7-0.5-5.3c3.7-1.9-3.6-2.8-0.5-4.1c0.9-1.1,0-1.7,0.6-1.7c0.1,0-0.5-0.6,1.4-1.8
	c-0.1-0.5,1.8-1.3,1.6-1.9c0.5-0.5,1-1,1.3-1.4h-0.1c-0.7-2.3-0.8-7,0.5-11.7c-1-1.6-2-3.2-2.3-4.7c-1.5-1.5-1.3-2.9,0.1-4.2
	c-0.8-1.2,0.2-2.3,0.6-3c0.6-0.8,1.3-1.2,1-1.2c-1.1,0.1,3.2-1.9,4-3.7c1.5-1.8,5.6-3.8,2.7-3.6c-1.4,0.1,0.4-0.8,1.1-2.2
	c-0.7-1.3-2.8-2.9-1.7-5.1c-2.5-1.9-1.5-4.3-2.6-6.6c-0.9-1.7,0.6-3.6-1.7-5.1c-0.2-1.6-2.2-3-1-4.5c-0.2-1.3-0.9-2.4-1.2-3.1
	c-0.3-0.8-0.4-1.2,0.6-1.2c-1.8,0.1-3-2.4,0.3-5.2c3.8-2.8-1.9-5,0.3-5.2c1.1-0.1,0.2-3.2,1.1-6.5c-0.9-3.1-2-6.3,1.1-6.5
	c-2.3,0.2,0.9-1.6-1.7-3.6c-2.6-1-2.5-2.3-1.7-3.7c-1.7-1.3-2.5-2.7-2-4.3c-0.7-1.5-0.7-2.9-1.5-4.3c-0.8-1.3-1.8-2.6-2.2-3.7
	c-1.6-2.1-2.6-3.6-1.7-3.6c0.7,0,0.5-2-0.1-4.6c-3.1-2.5,1.3-6.1-0.2-8.6c-1.8-2.5,1.9-4.8-0.1-4.6c-0.3,0,0.7-1.8-3.2-3.2
	c-1-1-2.1-2.1-2.7-2.7v-2.7l5-20.4c0,0,2.1-2.3,4.1-4.5c1.1-2.2,5-4.6,4.1-4.5c1.4-0.1,0.8-1.8-0.3-4.1c-1.5-2.2,0.1-5.3-0.6-7.6
	c0.3-2.4-0.8-4-0.3-4.1c-0.9,0.1,1.6-1.5,1.7-2.9c1.3-1.5,2-2.9,1.7-2.9c-0.4,0,0.5-0.8-0.7-1.8c1.5-1.2-1.5-2.5-1.6-4
	c0-1.5-2-2.9-3-3.9c-1-1-1.4-1.8,0.7-1.9c-4,0.3-0.5-1.8-0.3-4.2c-4.9-2.1-1.5-5.3-0.6-7.8c-5.1-2.1,0.9-4.3-0.3-4.2
	c-0.3,0-2.8-1.2-3.2-3.1c-1.8-1.7-3.9-3.8-5.8-5.5h-0.1c0.2-0.6,0.3-1.1,0.6-1.7c-0.2-3-1-5.9,1.9-8.4c0.2-2.3-0.6-3.7,0.9-3.8
	c0.8-0.1,1-1.9,0.3-4.2c0.1-2.4,0.3-5.4,0.5-7.9c0.1-2.4,0.3-4.2,0.3-4.2s0.4-2.8,2-5.7c3.6-3-1-5.5,2.5-5.7
	c4.3-0.3-0.9-0.8,1.7-2.3c-4-1.1-3.8-3.1-2.1-5.4c-0.4-2.2-3.6-4.5-2.4-7c-0.2-1.2-0.5-2.5-0.7-3.7c-0.2-1.2-0.4-2.4-0.7-3.5
	c-0.4-2.2-0.1-4.2-1-5.5c2.3-1.5-1.1-2.1-0.4-2.2c2-0.1-1.3-2.3-1.4-4.6c-0.9-2.3-2.9-4.5-1.4-4.6c0.5,0-1.8-0.5,0-1.6
	c-0.4-0.2-0.8-0.5-1-0.8v-1.9c0.2-0.4,0.6-0.9,1-1.4c-1.6-1.5,3.5-3.7,0.7-5.4c-1.1-1.8,0.4-3.7-0.5-5.3c2.9-1.5-0.9-2.4-1.3-3.3
	V406c0.1-0.2,0.3-0.4,0.8-0.5c0.9-1.1,0-1.6,0.6-1.7c0.1,0-0.5-0.6,1.4-1.8c-0.1-0.5,1.8-1.3,1.6-1.9c0.8-0.7,1.5-1.5,1.7-2.3
	c0.4-0.3,0.7-0.5,0.9-0.8c0,0,0,0,0.1,0c0,0,0,0,0-0.1c0.1-0.1,0.1-0.1,0.2-0.2c-0.1,0-0.1,0-0.2,0c0-0.3-0.1-0.6-0.3-0.9
	c-1.8-2.5,1.9-4.8-0.1-4.6c-0.3,0,0.7-1.8-3.2-3.2c-1.6-1.6-3.2-3.2-3.2-3.2l0.5-22.6c0,0,2-2.3,4.1-4.5c1.1-2.2,5-4.6,4.1-4.5
	c1.4-0.1,0.8-1.8-0.3-4.1c-1.5-2.2,0.1-5.3-0.6-7.6c0.3-2.4-0.8-4-0.3-4.1c-0.9,0.1,1.6-1.5,1.7-2.9c1.3-1.5,2-2.9,1.7-2.9
	c-0.5,0,0.5-0.8-0.7-1.8c1.5-1.2-1.5-2.5-1.6-4c0-1.5-2-2.9-3-3.9c-1-1-1.4-1.8,0.7-1.9c-4,0.3-0.5-1.8-0.3-4.2
	c-4.9-2.1-1.5-5.3-0.6-7.8c-5.1-2.1,0.9-4.3-0.3-4.2c-0.3,0-2.8-1.2-3.2-3.1c-1.9-1.8,0.8-4-1-5.8c-0.4-0.3-0.7-0.7-1-1v-34.7
	c0.3-0.5,0.7-1,1.3-1.5c0.2-2.3-0.6-3.7,0.8-3.8c0.8-0.1,1-1.9,0.3-4.2c0.2-2.4,0.3-5.4,0.5-7.9c0.2-2.4,0.3-4.2,0.3-4.2
	s0.3-2.8,2-5.7c3.6-3-1-5.5,2.5-5.7c4.3-0.3-0.9-0.8,1.7-2.3c-4-1.1-3.8-3.1-2.1-5.4c-0.3-2.2-3.6-4.5-2.4-7
	c-0.2-1.2-0.5-2.5-0.7-3.7c-0.2-1.2-0.4-2.4-0.7-3.5c-0.4-2.2-0.1-4.2-1-5.5c2.3-1.5-1.1-2.1-0.4-2.2c1.2-0.1,0.5-0.9-0.3-2
	c1.6-1.4,0.4-3.2,1.2-4.7c1.2-2.3,0.1-4.7,2.6-6.6c-1.1-2.2,1-3.8,1.7-5.1c-0.6-1.3-2.5-2.3-1.1-2.2c2.9,0.2-1.2-1.8-2.7-3.6
	c-0.4-1-1.9-2-3-2.7c-0.1-0.3-0.4-0.6-0.8-0.8v-4.4c0.2-0.3,0.6-0.6,1.3-1.1c-0.1-0.5,1.8-1.3,1.6-1.9c0.5-0.5,1-1,1.3-1.4h-0.1
	c-0.7-2.3-0.8-7,0.5-11.7c-1-1.6-2-3.2-2.3-4.7c-1.5-1.5-1.3-2.9,0.1-4.2c-0.8-1.2,0.2-2.3,0.6-3c0.6-0.8,1.3-1.2,1-1.2
	c-1.1,0.1,3.2-1.9,4-3.7c1.5-1.8,5.6-3.8,2.7-3.6c-1.4,0.1,0.4-0.8,1.1-2.2c-0.7-1.3-2.8-2.9-1.7-5.1c-2.5-1.9-1.5-4.3-2.6-6.6
	c-0.9-1.7,0.6-3.6-1.7-5.1c-0.2-1.6-2.2-3-1-4.5c-0.2-1.3-0.9-2.4-1.2-3.1c-0.3-0.8-0.4-1.2,0.6-1.2c-1.8,0.1-3-2.4,0.3-5.2
	c3.8-2.8-1.9-5,0.3-5.2c1.1-0.1,0.2-3.2,1.1-6.5c-0.9-3.1-2-6.3,1.1-6.5c-2.3,0.2,0.9-1.6-1.7-3.6c-2.6-1-2.5-2.3-1.7-3.7
	c-1.7-1.3-2.5-2.7-2-4.3c-0.6-1.4-0.7-2.9-1.5-4.2v-1.4c0.8-1.3,0.8-2.8,1.5-4.2c-0.5-1.5,0.3-3,2-4.3c-0.8-1.5-0.9-2.8,1.7-3.7
	c2.6-2.1-0.6-3.8,1.7-3.6c-3.1-0.2-2-3.3-1.1-6.5c-0.9-3.3,0-6.4-1.1-6.5c-2.2-0.2,3.5-2.3-0.3-5.2c-3.3-2.8-2.1-5.3-0.3-5.2
	c-0.9-0.1-0.9-0.5-0.6-1.2c0.3-0.8,1-1.8,1.2-3.1c-1.2-1.4,0.8-2.8,1-4.4c2.3-1.5,0.8-3.4,1.7-5.1c1.2-2.3,0.1-4.7,2.6-6.6
	c-1.1-2.2,1-3.8,1.7-5.1c-0.3-0.7-1-1.3-1.4-1.7H0z"/>
</svg>
