<?xml version="1.0" encoding="utf-8"?>
<!-- Generator: Adobe Illustrator 24.0.3, SVG Export Plug-In . SVG Version: 6.00 Build 0)  -->
<svg version="1.1" id="Layer_1" xmlns="http://www.w3.org/2000/svg" xmlns:xlink="http://www.w3.org/1999/xlink" x="0px" y="0px"
	 viewBox="0 0 1080 40" style="enable-background:new 0 0 1080 40;" xml:space="preserve">
<style type="text/css">
	.st0{fill:#FFEAD7;}
</style>
<path class="st0" d="M1080,0L568,0l-42.13,0L444,0L0,0l0,2.11l0,2.11l0,1.05l0,3.2l0,2.07l0,0.93c0.57,0.16,1.14,0.34,1.72,0.58
	c2.98-0.18,5.91-1.03,8.35,1.86c2.26,0.23,3.7-0.61,3.8,0.85c0.06,0.84,1.87,1.03,4.23,0.27c2.42,0.15,5.44,0.34,7.86,0.5
	c2.41,0.15,4.23,0.27,4.23,0.27s2.8,0.35,5.69,2.04c3.03,3.63,5.49-0.95,5.73,2.52c0.29,4.28,0.77-0.9,2.33,1.66
	c1.11-3.95,3.06-3.83,5.4-2.06c2.19-0.35,4.46-3.62,7.04-2.37c1.23-0.23,2.46-0.46,3.66-0.69c1.2-0.23,2.36-0.44,3.45-0.65
	c2.19-0.41,4.15-0.07,5.47-1.03c1.54,2.32,2.14-1.08,2.18-0.41c0.13,1.97,2.26-1.29,4.61-1.41c2.29-0.9,4.5-2.85,4.6-1.4
	c0.03,0.5,0.49-1.84,1.65,0.03c0.92-1.65,2.35-1.7,4.12,0.08c1.54-1.58,3.73,3.45,5.4,0.67c1.78-1.12,3.73,0.38,5.32-0.46
	c1.9,3.69,2.84-3.62,4.08-0.49c1.09,0.94,1.65,0.02,1.69,0.61c0.01,0.08,0.64-0.51,1.82,1.42c0.52-0.12,1.27,1.8,1.93,1.61
	c0.73,0.76,1.51,1.53,2.27,1.67c1.68,2.62,3.13,0.76,4.68,3.65c1.1,1.22,2,1.47,2.69,2.36c0.7,1.03,0.98-0.5,1.05,0.56
	c0.08,1.16,0.65-3.25,2.39,1.48c0.78,1.1,1.49-0.93,2.63,2.07c0.99,0.72,2.06,1.29,3.14,1.17c0.4-1.27,1.06,1.22,1.53,0.78
	c2.01-0.21,3.91,2.37,5.49,3.08c1.54,0.09,2.96,1.35,4.37,3.94c1.32,1.21,2.54,2.36,3.77,3.77c2.22-0.96,4.23-4.86,6.51-4.09
	c2.14-1.35,4.23-2.66,6.22-3.93c1.99-1.26,3.89-2.48,5.63-3.61c0.59-0.34,1.12-0.65,1.55-0.9c0.73-0.42,1.2-0.69,1.34-0.77
	c1.06-0.31,2.28-0.65,3.51-0.95c3.44,0.36,6.87,0.43,6.81-0.45c0.01,0.12,1.78,0.24,4.45,0.59c2.64-0.08,6.26,1.38,9.55-2.1
	c3.58,0.83,6.94-1.54,9.59-1.55c2.56-1.29,4.37-0.55,4.41,0.04c0.07,1.07,2.44,1.27,4.85,2.16c2.43,1.15,4.88,2.67,4.99,4.34
	c-0.1-1.42,6.46-2.41,13.21-0.55c1.59-1.05,3.18-1.95,4.71-2.29c1.45-1.55,2.92-1.27,4.25,0.14c1.19-0.75,2.29,0.18,3.04,0.61
	c0.77,0.63,1.23,1.32,1.21,1c-0.07-1.08,1.93,3.18,3.69,4c1.81,1.53,3.8,5.61,3.6,2.69c-0.1-1.41,0.81,0.44,2.16,1.06
	c1.26-0.69,2.94-2.82,5.1-1.73c1.92-2.55,4.34-1.49,6.61-2.64c1.7-0.91,3.57,0.63,5.06-1.67c1.64-0.2,3.05-2.17,4.45-1.01
	c1.3-0.24,2.36-0.88,3.11-1.21c0.75-0.34,1.19-0.37,1.25,0.58c-0.12-1.77,2.36-2.97,5.15,0.29c2.82,3.82,5-1.94,5.15,0.29
	c0.07,1.08,3.22,0.22,6.48,1.09c3.14-0.9,6.27-2,6.48,1.1c-0.15-2.26,1.56,0.89,3.62-1.69c0.95-2.58,2.26-2.49,3.72-1.73
	c1.29-1.65,2.73-2.46,4.26-1.98c1.45-0.65,2.94-0.71,4.29-1.54c1.35-0.84,2.59-1.78,3.68-2.17c2.13-1.62,3.56-2.63,3.62-1.69
	c0.05,0.72,2.03,0.51,4.64-0.12c2.45-3.06,6.07,1.27,8.63-0.22c2.54-1.83,4.78,1.93,4.64-0.11c-0.02-0.31,1.75,0.66,3.2-3.19
	c1.6-1.59,3.2-3.18,3.2-3.18l22.59,5.54c0,0,2.28,2.05,4.55,4.11c2.21,1.11,4.61,4.96,4.55,4.11c0.09,1.39,1.81,0.76,4.08-0.31
	c2.24-1.48,5.28,0.11,7.57-0.57c2.37,0.32,4.05-0.77,4.08-0.31c-0.06-0.91,1.5,1.64,2.89,1.67c1.48,1.29,2.91,1.97,2.89,1.67
	c-0.03-0.45,0.78,0.46,1.82-0.73c1.22,1.5,2.51-1.53,4-1.6c1.5,0.01,2.86-1.99,3.91-3c1.05-1.02,1.77-1.42,1.92,0.68
	c-0.28-4.05,1.77-0.49,4.19-0.32c2.07-4.9,5.31-1.5,7.78-0.59c2.06-5.09,4.27,0.94,4.19-0.32c-0.02-0.34,1.23-2.83,3.1-3.25
	c1.77-1.86,3.99-4.17,5.76-6.03c1.77-1.86,3.1-3.25,3.1-3.25s3.4-0.26,6.8-0.51c3.36-0.85,6.76-1.14,6.8-0.51
	c-0.13-1.87,1.5,0.08,3.8,0.84c2.28,0.56,5.28,0.61,8.35,1.86c2.98-0.18,5.91-1.03,8.35,1.86c2.26,0.23,3.7-0.61,3.8,0.85
	c0.06,0.84,1.87,1.03,4.23,0.27c2.42,0.15,5.44,0.34,7.86,0.5c2.41,0.15,4.23,0.27,4.23,0.27s2.8,0.35,5.69,2.04
	c3.03,3.63,5.49-0.95,5.73,2.52c0.29,4.28,0.77-0.9,2.33,1.66c1.11-3.95,3.06-3.83,5.4-2.06c2.19-0.35,4.46-3.62,7.04-2.37
	c1.23-0.23,2.46-0.46,3.66-0.69c1.2-0.23,2.36-0.44,3.45-0.65c2.19-0.41,4.15-0.07,5.47-1.03c1.54,2.32,2.14-1.08,2.18-0.41
	c0.13,1.97,2.26-1.29,4.61-1.41c2.29-0.9,4.5-2.85,4.6-1.4c0.03,0.5,0.49-1.84,1.65,0.03c0.92-1.65,2.35-1.7,4.12,0.08
	c1.54-1.58,3.73,3.45,5.4,0.67c1.78-1.12,3.73,0.38,5.32-0.46c1.9,3.69,2.84-3.62,4.08-0.49c1.09,0.94,1.65,0.02,1.69,0.61
	c0.01,0.08,0.64-0.51,1.82,1.42c0.52-0.12,1.27,1.8,1.93,1.61c0.73,0.76,1.51,1.53,2.27,1.67c1.68,2.62,3.13,0.76,4.68,3.65
	c1.1,1.22,2,1.47,2.69,2.36c0.7,1.03,0.98-0.5,1.05,0.56c0.08,1.16,0.65-3.25,2.39,1.48c0.78,1.1,1.49-0.93,2.63,2.07
	c0.99,0.72,2.06,1.29,3.14,1.17c0.4-1.27,1.06,1.22,1.53,0.78c2.01-0.21,3.91,2.37,5.49,3.08c1.54,0.09,2.96,1.35,4.37,3.94
	c1.32,1.21,2.54,2.36,3.77,3.77c2.22-0.96,4.23-4.86,6.51-4.09c2.14-1.35,4.23-2.66,6.22-3.93c1.99-1.26,3.89-2.48,5.63-3.61
	c0.59-0.34,1.12-0.65,1.55-0.9c0.1-0.06,0.18-0.1,0.27-0.16c1.26-0.39,3.41-1.03,5.58-1.57c3.44,0.36,6.87,0.43,6.81-0.45
	c0.01,0.12,1.78,0.24,4.45,0.59c2.64-0.08,6.26,1.38,9.55-2.1c3.58,0.83,6.94-1.54,9.59-1.55c2.56-1.29,4.37-0.55,4.41,0.04
	c0.07,1.07,2.44,1.27,4.85,2.16c2.43,1.15,4.88,2.67,4.99,4.34c-0.1-1.42,6.46-2.41,13.21-0.55c1.59-1.05,3.18-1.95,4.71-2.29
	c1.45-1.55,2.92-1.27,4.25,0.14c1.19-0.75,2.29,0.18,3.04,0.61c0.77,0.63,1.23,1.32,1.21,1c-0.07-1.08,1.93,3.18,3.69,4
	c1.81,1.53,3.8,5.61,3.6,2.69c-0.1-1.41,0.81,0.44,2.16,1.06c1.26-0.69,2.94-2.82,5.1-1.73c1.92-2.55,4.34-1.49,6.61-2.64
	c1.7-0.91,3.57,0.63,5.06-1.67c1.64-0.2,3.05-2.17,4.45-1.01c1.3-0.24,2.36-0.88,3.11-1.21c0.75-0.34,1.19-0.37,1.25,0.58
	c-0.12-1.77,2.36-2.97,5.15,0.29c2.82,3.82,5-1.94,5.15,0.29c0.07,1.08,3.22,0.22,6.48,1.09c3.14-0.9,6.27-2,6.48,1.1
	c-0.15-2.26,1.56,0.89,3.62-1.69c0.95-2.58,2.26-2.49,3.72-1.73c1.29-1.65,2.73-2.46,4.26-1.98c1.45-0.65,2.94-0.71,4.29-1.54
	c1.35-0.84,2.59-1.78,3.68-2.17c2.13-1.62,3.56-2.63,3.62-1.69c0.05,0.72,2.03,0.51,4.64-0.12c2.45-3.06,6.07,1.27,8.63-0.22
	c2.54-1.83,4.78,1.93,4.64-0.11c-0.02-0.31,1.75,0.66,3.2-3.19c1.6-1.59,3.2-3.18,3.2-3.18l22.59,5.54c0,0,2.28,2.05,4.55,4.11
	c2.21,1.11,4.61,4.96,4.55,4.11c0.09,1.39,1.81,0.76,4.08-0.31c2.24-1.48,5.28,0.11,7.57-0.57c2.37,0.32,4.05-0.77,4.08-0.31
	c-0.06-0.91,1.5,1.64,2.89,1.67c1.48,1.29,2.91,1.97,2.89,1.67c-0.03-0.45,0.78,0.46,1.82-0.73c1.22,1.5,2.51-1.53,4-1.6
	c1.5,0.01,2.86-1.99,3.91-3c1.05-1.02,1.77-1.42,1.92,0.68c-0.28-4.05,1.77-0.49,4.19-0.32c2.07-4.9,5.31-1.5,7.78-0.59
	c2.06-5.09,4.27,0.94,4.19-0.32c-0.02-0.34,1.23-2.83,3.1-3.25c1.77-1.86,3.99-4.17,5.76-6.03c1.77-1.86,3.1-3.25,3.1-3.25
	s3.4-0.26,6.8-0.51c3.36-0.85,6.76-1.14,6.8-0.51c-0.13-1.87,1.5,0.08,3.8,0.84c2.28,0.56,5.28,0.61,8.35,1.86
	c2.98-0.18,5.91-1.03,8.35,1.86c2.26,0.23,3.7-0.61,3.8,0.85c0.06,0.84,1.87,1.03,4.23,0.27c2.42,0.15,5.44,0.34,7.86,0.5
	c2.41,0.15,4.23,0.27,4.23,0.27s2.8,0.35,5.69,2.04c3.03,3.63,5.49-0.95,5.73,2.52c0.29,4.28,0.77-0.9,2.33,1.66
	c1.11-3.95,3.06-3.83,5.4-2.06c2.19-0.35,4.46-3.62,7.04-2.37c1.23-0.23,2.46-0.46,3.66-0.69c1.2-0.23,2.36-0.44,3.45-0.65
	c2.19-0.41,4.15-0.07,5.47-1.03c1.54,2.32,2.14-1.08,2.18-0.41c0.13,1.97,2.26-1.29,4.61-1.41c2.29-0.9,4.5-2.85,4.6-1.4
	c0.03,0.5,0.49-1.84,1.65,0.03c0.92-1.65,2.35-1.7,4.12,0.08c1.54-1.58,3.73,3.45,5.4,0.67c1.78-1.12,3.73,0.38,5.32-0.46
	c1.9,3.69,2.84-3.62,4.08-0.49c1.09,0.94,1.65,0.02,1.69,0.61c0.01,0.08,0.64-0.51,1.82,1.42c0.52-0.12,1.27,1.8,1.93,1.61
	c0.73,0.76,1.51,1.53,2.27,1.67c1.68,2.62,3.13,0.76,4.68,3.65c1.1,1.22,2,1.47,2.69,2.36c0.7,1.03,0.98-0.5,1.05,0.56
	c0.08,1.16,0.65-3.25,2.39,1.48c0.78,1.1,1.49-0.93,2.63,2.07c0.99,0.72,2.06,1.29,3.14,1.17c0.4-1.27,1.06,1.22,1.53,0.78
	c2.01-0.21,3.91,2.37,5.49,3.08c1.54,0.09,2.96,1.35,4.37,3.94c1.32,1.21,2.54,2.36,3.77,3.77c2.22-0.96,4.23-4.86,6.51-4.09
	c2.14-1.35,4.23-2.66,6.22-3.93c1.99-1.26,3.89-2.48,5.63-3.61c0.59-0.34,1.12-0.65,1.55-0.9c0.29-0.17,0.53-0.31,0.74-0.43v-10.1
	l-0.43-6.29l0.43-0.11V5.27V0z M444,5.27L444,5.27h-0.01H444z"/>
</svg>
