<?xml version="1.0" encoding="utf-8"?>
<!-- Generator: Adobe Illustrator 24.0.3, SVG Export Plug-In . SVG Version: 6.00 Build 0)  -->
<svg version="1.1" id="Layer_1" xmlns="http://www.w3.org/2000/svg" xmlns:xlink="http://www.w3.org/1999/xlink" x="0px" y="0px"
	 viewBox="0 0 40 1080" style="enable-background:new 0 0 40 1080;" xml:space="preserve">
<style type="text/css">
	.st0{fill:#FFEAD7;}
</style>
<path class="st0" d="M0,0l0,512l0,42.13L0,636l0,444h2.11h2.11h1.05h3.2h2.07h0.93c0.16-0.57,0.34-1.14,0.58-1.72
	c-0.18-2.98-1.03-5.91,1.86-8.35c0.23-2.26-0.61-3.7,0.85-3.8c0.84-0.06,1.03-1.87,0.27-4.23c0.15-2.42,0.34-5.44,0.5-7.86
	c0.15-2.41,0.27-4.23,0.27-4.23s0.35-2.8,2.04-5.69c3.63-3.03-0.95-5.49,2.52-5.73c4.28-0.29-0.9-0.77,1.66-2.33
	c-3.95-1.11-3.83-3.06-2.06-5.4c-0.35-2.19-3.62-4.46-2.37-7.04c-0.23-1.23-0.46-2.46-0.69-3.66c-0.23-1.2-0.44-2.36-0.65-3.45
	c-0.41-2.19-0.07-4.15-1.03-5.47c2.32-1.54-1.08-2.14-0.41-2.18c1.97-0.13-1.29-2.26-1.41-4.61c-0.9-2.29-2.85-4.5-1.4-4.6
	c0.5-0.03-1.84-0.49,0.03-1.65c-1.65-0.92-1.7-2.35,0.08-4.12c-1.58-1.54,3.45-3.73,0.67-5.4c-1.12-1.78,0.38-3.73-0.46-5.32
	c3.69-1.9-3.62-2.84-0.49-4.08c0.94-1.09,0.02-1.65,0.61-1.69c0.08-0.01-0.51-0.64,1.42-1.82c-0.12-0.52,1.8-1.27,1.61-1.93
	c0.76-0.73,1.53-1.51,1.67-2.27c2.62-1.68,0.76-3.13,3.65-4.68c1.22-1.1,1.47-2,2.36-2.69c1.03-0.7-0.5-0.98,0.56-1.05
	c1.16-0.08-3.25-0.65,1.48-2.39c1.1-0.78-0.93-1.49,2.07-2.63c0.72-0.99,1.29-2.06,1.17-3.14c-1.27-0.4,1.22-1.06,0.78-1.53
	c-0.21-2.01,2.37-3.91,3.08-5.49c0.09-1.54,1.35-2.96,3.94-4.37c1.21-1.32,2.36-2.54,3.77-3.77c-0.96-2.22-4.86-4.23-4.09-6.51
	c-1.35-2.14-2.66-4.23-3.93-6.22c-1.26-1.99-2.48-3.89-3.61-5.63c-0.34-0.59-0.65-1.12-0.9-1.55c-0.42-0.73-0.69-1.2-0.77-1.34
	c-0.31-1.06-0.65-2.28-0.95-3.51c0.36-3.44,0.43-6.87-0.45-6.81c0.12-0.01,0.24-1.78,0.59-4.45c-0.08-2.64,1.38-6.26-2.1-9.55
	c0.83-3.58-1.54-6.94-1.55-9.59c-1.29-2.56-0.55-4.37,0.04-4.41c1.07-0.07,1.27-2.44,2.16-4.85c1.15-2.43,2.67-4.88,4.34-4.99
	c-1.42,0.1-2.41-6.46-0.55-13.21c-1.05-1.59-1.95-3.18-2.29-4.71c-1.55-1.45-1.27-2.92,0.14-4.25c-0.75-1.19,0.18-2.29,0.61-3.04
	c0.63-0.77,1.32-1.23,1-1.21c-1.08,0.07,3.18-1.93,4-3.69c1.53-1.81,5.61-3.8,2.69-3.6c-1.41,0.1,0.44-0.81,1.06-2.16
	c-0.69-1.26-2.82-2.94-1.73-5.1c-2.55-1.92-1.49-4.34-2.64-6.61c-0.91-1.7,0.63-3.57-1.67-5.06c-0.2-1.64-2.17-3.05-1.01-4.45
	c-0.24-1.3-0.88-2.36-1.21-3.11c-0.34-0.75-0.37-1.19,0.58-1.25c-1.77,0.12-2.97-2.36,0.29-5.15c3.82-2.82-1.94-5,0.29-5.15
	c1.08-0.07,0.22-3.22,1.09-6.48c-0.9-3.14-2-6.27,1.1-6.48c-2.26,0.15,0.89-1.56-1.69-3.62c-2.58-0.95-2.49-2.26-1.73-3.72
	c-1.65-1.29-2.46-2.73-1.98-4.26c-0.65-1.45-0.71-2.94-1.54-4.29c-0.84-1.35-1.78-2.59-2.17-3.68c-1.62-2.13-2.63-3.56-1.69-3.62
	c0.72-0.05,0.51-2.03-0.12-4.64c-3.06-2.45,1.27-6.07-0.22-8.63c-1.83-2.54,1.93-4.78-0.11-4.64c-0.31,0.02,0.66-1.75-3.19-3.2
	c-1.59-1.6-3.18-3.2-3.18-3.2l5.54-22.59c0,0,2.05-2.28,4.11-4.55c1.11-2.21,4.96-4.61,4.11-4.55c1.39-0.09,0.76-1.81-0.31-4.08
	c-1.48-2.24,0.11-5.28-0.57-7.57c0.32-2.37-0.77-4.05-0.31-4.08c-0.91,0.06,1.64-1.5,1.67-2.89c1.29-1.48,1.97-2.91,1.67-2.89
	c-0.45,0.03,0.46-0.78-0.73-1.82c1.5-1.22-1.53-2.51-1.6-4c0.01-1.5-1.99-2.86-3-3.91c-1.02-1.05-1.42-1.77,0.68-1.92
	c-4.05,0.28-0.49-1.77-0.32-4.19c-4.9-2.07-1.5-5.31-0.59-7.78c-5.09-2.06,0.94-4.27-0.32-4.19c-0.34,0.02-2.83-1.23-3.25-3.1
	c-1.86-1.77-4.17-3.99-6.03-5.76c-1.86-1.77-3.25-3.1-3.25-3.1s-0.26-3.4-0.51-6.8c-0.85-3.36-1.14-6.76-0.51-6.8
	c-1.87,0.13,0.08-1.5,0.84-3.8c0.56-2.28,0.61-5.28,1.86-8.35c-0.18-2.98-1.03-5.91,1.86-8.35c0.23-2.26-0.61-3.7,0.85-3.8
	c0.84-0.06,1.03-1.87,0.27-4.23c0.15-2.42,0.34-5.44,0.5-7.86c0.15-2.41,0.27-4.23,0.27-4.23s0.35-2.8,2.04-5.69
	c3.63-3.03-0.95-5.49,2.52-5.73c4.28-0.29-0.9-0.77,1.66-2.33c-3.95-1.11-3.83-3.06-2.06-5.4c-0.35-2.19-3.62-4.46-2.37-7.04
	c-0.23-1.23-0.46-2.46-0.69-3.66c-0.23-1.2-0.44-2.36-0.65-3.45c-0.41-2.19-0.07-4.15-1.03-5.47c2.32-1.54-1.08-2.14-0.41-2.18
	c1.97-0.13-1.29-2.26-1.41-4.61c-0.9-2.29-2.85-4.5-1.4-4.6c0.5-0.03-1.84-0.49,0.03-1.65c-1.65-0.92-1.7-2.35,0.08-4.12
	c-1.58-1.54,3.45-3.73,0.67-5.4c-1.12-1.78,0.38-3.73-0.46-5.32c3.69-1.9-3.62-2.84-0.49-4.08c0.94-1.09,0.02-1.65,0.61-1.69
	c0.08-0.01-0.51-0.64,1.42-1.82c-0.12-0.52,1.8-1.27,1.61-1.93c0.76-0.73,1.53-1.51,1.67-2.27c2.62-1.68,0.76-3.13,3.65-4.68
	c1.22-1.1,1.47-2,2.36-2.69c1.03-0.7-0.5-0.98,0.56-1.05c1.16-0.08-3.25-0.65,1.48-2.39c1.1-0.78-0.93-1.49,2.07-2.63
	c0.72-0.99,1.29-2.06,1.17-3.14c-1.27-0.4,1.22-1.06,0.78-1.53c-0.21-2.01,2.37-3.91,3.08-5.49c0.09-1.54,1.35-2.96,3.94-4.37
	c1.21-1.32,2.36-2.54,3.77-3.77c-0.96-2.22-4.86-4.23-4.09-6.51c-1.35-2.14-2.66-4.23-3.93-6.22c-1.26-1.99-2.48-3.89-3.61-5.63
	c-0.34-0.59-0.65-1.12-0.9-1.55c-0.06-0.1-0.1-0.18-0.16-0.27c-0.39-1.26-1.03-3.41-1.57-5.58c0.36-3.44,0.43-6.87-0.45-6.81
	c0.12-0.01,0.24-1.78,0.59-4.45c-0.08-2.64,1.38-6.26-2.1-9.55c0.83-3.58-1.54-6.94-1.55-9.59c-1.29-2.56-0.55-4.37,0.04-4.41
	c1.07-0.07,1.27-2.44,2.16-4.85c1.15-2.43,2.67-4.88,4.34-4.99c-1.42,0.1-2.41-6.46-0.55-13.21c-1.05-1.59-1.95-3.18-2.29-4.71
	c-1.55-1.45-1.27-2.92,0.14-4.25c-0.75-1.19,0.18-2.29,0.61-3.04c0.63-0.77,1.32-1.23,1-1.21c-1.08,0.07,3.18-1.93,4-3.69
	c1.53-1.81,5.61-3.8,2.69-3.6c-1.41,0.1,0.44-0.81,1.06-2.16c-0.69-1.26-2.82-2.94-1.73-5.1c-2.55-1.92-1.49-4.34-2.64-6.61
	c-0.91-1.7,0.63-3.57-1.67-5.06c-0.2-1.64-2.17-3.05-1.01-4.45c-0.24-1.3-0.88-2.36-1.21-3.11c-0.34-0.75-0.37-1.19,0.58-1.25
	c-1.77,0.12-2.97-2.36,0.29-5.15c3.82-2.82-1.94-5,0.29-5.15c1.08-0.07,0.22-3.22,1.09-6.48c-0.9-3.14-2-6.27,1.1-6.48
	c-2.26,0.15,0.89-1.56-1.69-3.62c-2.58-0.95-2.49-2.26-1.73-3.72c-1.65-1.29-2.46-2.73-1.98-4.26c-0.65-1.45-0.71-2.94-1.54-4.29
	c-0.84-1.35-1.78-2.59-2.17-3.68c-1.62-2.13-2.63-3.56-1.69-3.62c0.72-0.05,0.51-2.03-0.12-4.64c-3.06-2.45,1.27-6.07-0.22-8.63
	c-1.83-2.54,1.93-4.78-0.11-4.64c-0.31,0.02,0.66-1.75-3.19-3.2c-1.59-1.6-3.18-3.2-3.18-3.2l5.54-22.59c0,0,2.05-2.28,4.11-4.55
	c1.11-2.21,4.96-4.61,4.11-4.55c1.39-0.09,0.76-1.81-0.31-4.08c-1.48-2.24,0.11-5.28-0.57-7.57c0.32-2.37-0.77-4.05-0.31-4.08
	c-0.91,0.06,1.64-1.5,1.67-2.89c1.29-1.48,1.97-2.91,1.67-2.89c-0.45,0.03,0.46-0.78-0.73-1.82c1.5-1.22-1.53-2.51-1.6-4
	c0.01-1.5-1.99-2.86-3-3.91c-1.02-1.05-1.42-1.77,0.68-1.92c-4.05,0.28-0.49-1.77-0.32-4.19c-4.9-2.07-1.5-5.31-0.59-7.78
	c-5.09-2.06,0.94-4.27-0.32-4.19c-0.34,0.02-2.83-1.23-3.25-3.1c-1.86-1.77-4.17-3.99-6.03-5.76c-1.86-1.77-3.25-3.1-3.25-3.1
	s-0.26-3.4-0.51-6.8c-0.85-3.36-1.14-6.76-0.51-6.8c-1.87,0.13,0.08-1.5,0.84-3.8c0.56-2.28,0.61-5.28,1.86-8.35
	c-0.18-2.98-1.03-5.91,1.86-8.35c0.23-2.26-0.61-3.7,0.85-3.8c0.84-0.06,1.03-1.87,0.27-4.23c0.15-2.42,0.34-5.44,0.5-7.86
	c0.15-2.41,0.27-4.23,0.27-4.23s0.35-2.8,2.04-5.69c3.63-3.03-0.95-5.49,2.52-5.73c4.28-0.29-0.9-0.77,1.66-2.33
	c-3.95-1.11-3.83-3.06-2.06-5.4c-0.35-2.19-3.62-4.46-2.37-7.04c-0.23-1.23-0.46-2.46-0.69-3.66c-0.23-1.2-0.44-2.36-0.65-3.45
	c-0.41-2.19-0.07-4.15-1.03-5.47c2.32-1.54-1.08-2.14-0.41-2.18c1.97-0.13-1.29-2.26-1.41-4.61c-0.9-2.29-2.85-4.5-1.4-4.6
	c0.5-0.03-1.84-0.49,0.03-1.65c-1.65-0.92-1.7-2.35,0.08-4.12c-1.58-1.54,3.45-3.73,0.67-5.4c-1.12-1.78,0.38-3.73-0.46-5.32
	c3.69-1.9-3.62-2.84-0.49-4.08c0.94-1.09,0.02-1.65,0.61-1.69c0.08-0.01-0.51-0.64,1.42-1.82c-0.12-0.52,1.8-1.27,1.61-1.93
	c0.76-0.73,1.53-1.51,1.67-2.27c2.62-1.68,0.76-3.13,3.65-4.68c1.22-1.1,1.47-2,2.36-2.69c1.03-0.7-0.5-0.98,0.56-1.05
	c1.16-0.08-3.25-0.65,1.48-2.39c1.1-0.78-0.93-1.49,2.07-2.63c0.72-0.99,1.29-2.06,1.17-3.14c-1.27-0.4,1.22-1.06,0.78-1.53
	c-0.21-2.01,2.37-3.91,3.08-5.49c0.09-1.54,1.35-2.96,3.94-4.37c1.21-1.32,2.36-2.54,3.77-3.77c-0.96-2.22-4.86-4.23-4.09-6.51
	c-1.35-2.14-2.66-4.23-3.93-6.22c-1.26-1.99-2.48-3.89-3.61-5.63c-0.34-0.59-0.65-1.12-0.9-1.55C27.3,0.45,27.17,0.21,27.05,0
	l-10.1,0l-6.29,0.43L10.54,0L5.27,0L0,0z M5.27,636L5.27,636v0.01V636z"/>
</svg>
